<mxfile host="app.diagrams.net" agent="Mozilla/5.0 (Windows NT 10.0; Win64; x64) AppleWebKit/537.36 (KHTML, like Gecko) Chrome/139.0.0.0 Safari/537.36" version="28.1.1">
  <diagram name="Page-1" id="Diq_IC1tx4YR0bBFk_lB">
    <mxGraphModel dx="872" dy="1573" grid="1" gridSize="10" guides="1" tooltips="1" connect="1" arrows="1" fold="1" page="1" pageScale="1" pageWidth="850" pageHeight="1100" math="0" shadow="0">
      <root>
        <mxCell id="0" />
        <mxCell id="1" parent="0" />
        <mxCell id="bRFFGiG6ytyCKUNBNAe6-3" value="" style="edgeStyle=orthogonalEdgeStyle;rounded=0;orthogonalLoop=1;jettySize=auto;html=1;" edge="1" parent="1" source="bRFFGiG6ytyCKUNBNAe6-1" target="bRFFGiG6ytyCKUNBNAe6-2">
          <mxGeometry relative="1" as="geometry" />
        </mxCell>
        <mxCell id="bRFFGiG6ytyCKUNBNAe6-1" value="&lt;font style=&quot;font-size: 18px;&quot;&gt;Plan&lt;/font&gt;" style="ellipse;whiteSpace=wrap;html=1;fillColor=#a20025;fontColor=#ffffff;strokeColor=#6F0000;" vertex="1" parent="1">
          <mxGeometry x="340" y="-10" width="150" height="90" as="geometry" />
        </mxCell>
        <mxCell id="bRFFGiG6ytyCKUNBNAe6-5" value="" style="edgeStyle=orthogonalEdgeStyle;rounded=0;orthogonalLoop=1;jettySize=auto;html=1;" edge="1" parent="1" source="bRFFGiG6ytyCKUNBNAe6-2" target="bRFFGiG6ytyCKUNBNAe6-4">
          <mxGeometry relative="1" as="geometry" />
        </mxCell>
        <mxCell id="bRFFGiG6ytyCKUNBNAe6-2" value="&lt;span style=&quot;font-size: 18px;&quot;&gt;Develop&lt;/span&gt;" style="ellipse;whiteSpace=wrap;html=1;fillColor=#60a917;fontColor=#ffffff;strokeColor=#2D7600;" vertex="1" parent="1">
          <mxGeometry x="340" y="100" width="150" height="90" as="geometry" />
        </mxCell>
        <mxCell id="bRFFGiG6ytyCKUNBNAe6-7" value="" style="edgeStyle=orthogonalEdgeStyle;rounded=0;orthogonalLoop=1;jettySize=auto;html=1;" edge="1" parent="1" source="bRFFGiG6ytyCKUNBNAe6-4" target="bRFFGiG6ytyCKUNBNAe6-6">
          <mxGeometry relative="1" as="geometry" />
        </mxCell>
        <mxCell id="bRFFGiG6ytyCKUNBNAe6-4" value="&lt;span style=&quot;font-size: 18px;&quot;&gt;Build&lt;/span&gt;" style="ellipse;whiteSpace=wrap;html=1;fillColor=#0050ef;fontColor=#ffffff;strokeColor=#001DBC;" vertex="1" parent="1">
          <mxGeometry x="340" y="210" width="150" height="90" as="geometry" />
        </mxCell>
        <mxCell id="bRFFGiG6ytyCKUNBNAe6-9" value="" style="edgeStyle=orthogonalEdgeStyle;rounded=0;orthogonalLoop=1;jettySize=auto;html=1;" edge="1" parent="1" source="bRFFGiG6ytyCKUNBNAe6-6" target="bRFFGiG6ytyCKUNBNAe6-8">
          <mxGeometry relative="1" as="geometry" />
        </mxCell>
        <mxCell id="bRFFGiG6ytyCKUNBNAe6-6" value="&lt;span style=&quot;font-size: 18px;&quot;&gt;Test&lt;/span&gt;" style="ellipse;whiteSpace=wrap;html=1;fillColor=#d80073;fontColor=#ffffff;strokeColor=#A50040;" vertex="1" parent="1">
          <mxGeometry x="340" y="320" width="150" height="90" as="geometry" />
        </mxCell>
        <mxCell id="bRFFGiG6ytyCKUNBNAe6-11" value="" style="edgeStyle=orthogonalEdgeStyle;rounded=0;orthogonalLoop=1;jettySize=auto;html=1;" edge="1" parent="1" source="bRFFGiG6ytyCKUNBNAe6-8" target="bRFFGiG6ytyCKUNBNAe6-10">
          <mxGeometry relative="1" as="geometry" />
        </mxCell>
        <mxCell id="bRFFGiG6ytyCKUNBNAe6-8" value="&lt;span style=&quot;font-size: 18px;&quot;&gt;Realease&lt;/span&gt;" style="ellipse;whiteSpace=wrap;html=1;fillColor=#1ba1e2;fontColor=#ffffff;strokeColor=#006EAF;" vertex="1" parent="1">
          <mxGeometry x="340" y="430" width="150" height="80" as="geometry" />
        </mxCell>
        <mxCell id="bRFFGiG6ytyCKUNBNAe6-13" value="" style="edgeStyle=orthogonalEdgeStyle;rounded=0;orthogonalLoop=1;jettySize=auto;html=1;" edge="1" parent="1" source="bRFFGiG6ytyCKUNBNAe6-10" target="bRFFGiG6ytyCKUNBNAe6-12">
          <mxGeometry relative="1" as="geometry" />
        </mxCell>
        <mxCell id="bRFFGiG6ytyCKUNBNAe6-10" value="&lt;span style=&quot;font-size: 18px;&quot;&gt;Deploy&lt;/span&gt;" style="ellipse;whiteSpace=wrap;html=1;fillColor=#647687;fontColor=#ffffff;strokeColor=#314354;" vertex="1" parent="1">
          <mxGeometry x="340" y="530" width="150" height="80" as="geometry" />
        </mxCell>
        <mxCell id="bRFFGiG6ytyCKUNBNAe6-15" value="" style="edgeStyle=orthogonalEdgeStyle;rounded=0;orthogonalLoop=1;jettySize=auto;html=1;" edge="1" parent="1" source="bRFFGiG6ytyCKUNBNAe6-12" target="bRFFGiG6ytyCKUNBNAe6-14">
          <mxGeometry relative="1" as="geometry" />
        </mxCell>
        <mxCell id="bRFFGiG6ytyCKUNBNAe6-12" value="&lt;span style=&quot;font-size: 18px;&quot;&gt;Operate&lt;/span&gt;" style="ellipse;whiteSpace=wrap;html=1;fillColor=#a0522d;fontColor=#ffffff;strokeColor=#6D1F00;" vertex="1" parent="1">
          <mxGeometry x="340" y="630" width="150" height="80" as="geometry" />
        </mxCell>
        <mxCell id="bRFFGiG6ytyCKUNBNAe6-14" value="&lt;span style=&quot;font-size: 18px;&quot;&gt;Monitor&lt;/span&gt;" style="ellipse;whiteSpace=wrap;html=1;fillColor=#e51400;fontColor=#ffffff;strokeColor=#B20000;" vertex="1" parent="1">
          <mxGeometry x="340" y="730" width="150" height="80" as="geometry" />
        </mxCell>
      </root>
    </mxGraphModel>
  </diagram>
</mxfile>
